<?xml version="1.0" standalone="no"?>
<!DOCTYPE svg PUBLIC "-//W3C//DTD SVG 20010904//EN"
 "http://www.w3.org/TR/2001/REC-SVG-20010904/DTD/svg10.dtd">
<svg version="1.0" xmlns="http://www.w3.org/2000/svg"
 width="700.000000pt" height="700.000000pt" viewBox="0 0 700.000000 700.000000"
 preserveAspectRatio="xMidYMid meet">
<metadata>
Created by potrace 1.14, written by Peter Selinger 2001-2017
</metadata>
<g transform="translate(0.000000,700.000000) scale(0.100000,-0.100000)"
fill="#000000" stroke="none">
<path d="M1869 6403 c0 -161 0 -493 0 -533 l1 -35 615 1 c429 0 615 -3 616
-10 1 -6 2 -1027 3 -2269 0 -1496 -2 -2261 -9 -2266 -5 -4 -282 -7 -613 -7
-332 1 -606 -3 -609 -7 -4 -6 -7 -488 -4 -638 l1 -26 1635 0 1635 0 -2 336 -3
336 -612 0 c-537 0 -612 2 -615 15 -2 8 -4 1032 -3 2275 l0 2260 600 2 c330 1
608 2 618 2 16 1 17 24 17 336 l0 335 -1635 0 -1635 0 -1 -107z"/>
<path d="M2148 5084 c-2 -1 -33 -5 -70 -8 -286 -24 -576 -157 -780 -358 l-38
-38 27 -6 c188 -42 312 -147 362 -308 34 -112 25 -261 -22 -352 -33 -64 -138
-142 -217 -160 -114 -26 -170 -32 -390 -40 -85 -3 -166 -7 -180 -9 -78 -11
-113 -19 -185 -42 -259 -82 -489 -267 -611 -493 -45 -83 -47 -91 -21 -80 103
40 277 71 390 69 296 -6 474 -132 731 -519 213 -320 311 -438 461 -554 137
-106 297 -190 425 -222 160 -39 226 -48 355 -48 117 0 208 13 296 40 l46 15 0
1520 0 1521 -26 9 c-47 19 -145 39 -256 54 -48 7 -292 14 -297 9z"/>
<path d="M4528 5085 c-2 -2 -28 -6 -58 -9 -54 -7 -106 -18 -166 -37 l-31 -10
0 -1524 0 -1524 86 -20 c152 -35 241 -45 401 -45 164 1 238 11 385 51 212 58
385 153 534 293 36 33 63 60 60 61 -255 45 -410 218 -410 458 0 103 26 193 73
252 30 37 112 89 170 107 97 31 162 39 408 47 137 5 159 7 238 19 193 30 456
173 593 325 54 59 143 191 171 252 l16 36 -76 -23 c-115 -36 -215 -52 -317
-52 -257 0 -452 108 -636 353 -39 52 -246 357 -274 403 -5 10 -12 19 -15 22
-3 3 -31 37 -62 75 -216 268 -497 429 -838 481 -43 6 -247 13 -252 9z"/>
</g>
</svg>
